<?xml version="1.0" encoding="UTF-8"?>
<svg id="Layer_1" xmlns="http://www.w3.org/2000/svg" width="800" height="800" version="1.1" viewBox="0 0 800 800">
  <!-- Generator: Adobe Illustrator 29.8.3, SVG Export Plug-In . SVG Version: 2.1.1 Build 3)  -->
  <defs>
    <style>
      .st0 {
        fill: #fff;
      }
    </style>
  </defs>
  <g id="A1kwTe">
    <g>
      <path class="st0" d="M822.33-16.67v842.67H-20.33V-16.67h842.67ZM203.37,245.71c11.41-23.87,29.06-43.75,48.51-61.34l-.39-133.41c-1.87-5.54-6.57-7.9-12.17-8.4H63.16c-7.15.07-11.5,4.43-13.98,10.71l-.42,179.04c.22,8.19,7.55,13.27,15.23,13.57l139.38-.16ZM359.03,73.85h-29.21c-2.98,0-6.65,4.75-7.01,7.8-.43,3.64-.42,13.6.21,17.1.79,4.38,4.12,6.83,8.41,7.23,15.65,1.44,33.19-1.48,49.03.35,15.62,6.64-4,29.15,16.82,30.91,7.53.64,22.33,2,23.5-7.83,1.72-14.46-1.42-32.22-.05-46.96.36-3.84,1.08-7.06,5.43-7.74,7.52-1.17,28.27,2.16,33.25-2.14,3.34-2.88,3.05-17.72,2.52-22.21s-4.24-7.53-8.66-7.8c-26.54,2.22-57.98-2.97-83.94,0-4.04.46-10.29,4.18-10.29,8.64v22.63ZM497.57,101.54c1.09,1.09,2.65,1.78,4.2,1.97,3.17.39,15.23.49,18.12-.05,2.12-.4,4-3.04,5-4.87-.58-15.14,2.04-33.39.37-48.19-.65-5.73-3.12-7.34-8.61-7.85s-18.67-1.53-20.65,4.93l-.4,49.86c.12,1.51.93,3.16,1.97,4.2ZM552.6,186.42c15.01,12.44,28.08,27.61,38.52,44.18,1.44,2.28,7.78,14.77,8.75,15.11l138.15.16c8.44-.67,15.14-3.41,16.06-12.74l-.43-180.7c-1.98-5.87-6.96-9.47-13.16-9.88l-180.52.59c-3.08,1.23-5.73,3.01-6.91,6.25l-.46,137.03ZM297.07,43.58c-3.21.72-5.03,3.89-5.45,6.9-.59,4.22-.69,19.01,1.56,22.16,2.82,3.96,16.14,3.41,21,2.86,5.45-.61,7.35-3.33,7.86-8.6.44-4.5.71-17.88-2.15-20.98-3.01-3.26-18.55-3.3-22.82-2.34ZM319.28,135.32c3.63-3.21,3.26-16.74,2.72-21.55-.7-6.2-4.44-8.16-10.25-8.67-6.34-.56-18.43-1.28-19.39,7.01-.38,3.29-.39,19.38.8,21.46.39.68,2.78,2.73,3.55,3.04,3.45,1.39,19.68,1.28,22.58-1.28ZM468.29,105.34c-3.18.49-6.26,1.83-7.04,5.3-.7,3.15-.61,16.07-.19,19.6.46,3.91,3.08,6.53,6.99,6.99,5.57.66,19.55,1.37,22.25-4.12,2.08-4.23,2.16-20.98-.87-24.66s-16.57-3.82-21.14-3.11ZM587.81,576.66c.87-.92,5.06,4.79,6.15,5.78,31.59,28.65,86.35,21.4,102.87-19.78,16.41-40.92,5.21-112.83-6.39-154.87-11.83-42.9-44.66-122.15-82.63-146.97-4.46-2.92-16.63-7.65-19.2-10.42-2.81-3.03-8.27-15.42-11.65-20.44-76.84-114-281.99-109.69-355.69,6.91-2.29,3.62-5.69,12.01-7.87,14.35-2.34,2.52-13.9,7.24-18.06,9.92-39.51,25.53-71.61,104.73-83.77,149.11-14.65,53.43-38.62,183.4,45.41,189.48,22.23,1.61,42.78-7.3,57.22-23.9,2.6,19.61,17.41,38.37,33.49,49.22,20.59,13.89,45.1,17.86,69.62,15.13,46.82,46.48,121.85,45.23,169.08.02,43.94,6.32,91.69-18.51,101.42-63.54ZM735.1,296.86h13.58c8.01,0,6.88-21.16,5.65-26.22s-4.15-6.28-8.91-6.72c-19.54-1.84-41.9,1.43-61.75.03-2.96.11-6.54,1.91-7.45,4.89s-.8,18.31-.39,21.87c1.45,12.5,23.29,1.1,25.99,9.4,1.69,11.95-1.01,25.79.35,37.51.44,3.78,2.36,5.73,6.17,6.17,4.55.53,16.06.53,20.61,0,2.14-.25,6.15-2.37,6.15-4.54v-42.38ZM54.31,285.52c-2.19.49-4.86,3.17-5.35,5.35-.71,3.15-.56,14.4-.22,17.97.39,4.07,1.72,6.89,5.78,8.21l62.99.41c2.71.08,6.69-3.32,7.43-5.73.8-2.61.78-16.3.31-19.33s-2.64-5.65-5.5-6.84l-65.46-.03ZM72.09,348.97c-1.22,1.08-2.54,4.17-2.75,5.89-.49,4.04-.44,14.04.02,18.13.42,3.76,2.16,7.13,6.22,7.77,4.61.73,20.74.8,23.85-2.39,2.79-2.87,2.49-18.3,2.07-22.7-.55-5.69-2.95-8.09-8.64-8.64-4.27-.41-17.84-.65-20.77,1.94ZM721.41,381.09c-1.05,1.05-1.85,2.69-1.97,4.2,1.08,14.61-1.32,30.94,0,45.33.39,4.33,2.6,7.03,7.09,7.73,3.64.56,20.9.48,23.64-.94,1.96-1.02,3.62-3.83,3.91-5.96,1.24-9.14.89-34.93,0-44.51-.34-3.64-2.24-7.3-6.17-7.82-4.35-.58-17.88-.53-22.29,0-1.55.19-3.11.88-4.2,1.97ZM54.31,412.25c-1.37.31-3.09,1.56-3.89,2.69-2.22,3.11-2.16,18.75-1.65,23.08.62,5.28,4.66,7.3,9.49,7.79,5.57.56,21.07,1.53,23.07-4.88.87-2.78.8-18.37.39-21.87s-2.77-6.38-6.24-6.93c-3.28-.52-18.14-.55-21.18.13ZM53.49,512.65c-2.6.58-4.27,3.56-4.65,6.05-.64,4.18-.58,17.04-.07,21.36.54,4.59,3.5,6.48,7.84,6.98,5.47.62,21.33,1.46,23.65-4.33,1.08-2.69,1.08-19.65.64-23.26-.47-3.9-2.1-6.52-6.18-6.99-3.77-.44-17.88-.56-21.23.19ZM723.81,521.75c-.91.91-1.75,3.73-1.9,5.1-.4,3.58-.44,18.94.64,21.62.8,1.99,3.3,4.08,5.51,4.37,3.21.42,19.32.39,21.89-.41,1.53-.48,3.22-2.17,3.7-3.7.88-2.8.8-19.14.38-22.69s-2.6-5.71-6.15-6.19c-3.89-.53-14.97-.43-18.98.01-1.37.15-4.19.99-5.1,1.9ZM221.6,622.74v99.16c0,5.02-9.08,12.93-14.4,12.76-36.16-2.35-76.26,3.12-111.95.03-10.18-.88-15.19-6.9-16.05-16.87-2.96-34.39,2.27-72.99.04-107.82.54-5.11,2.73-9.78,7.12-12.63.72-.47,5.27-2.6,5.63-2.6h17.69l-11.87-16.52-6.79-13.13c-11.49,1.92-38.54-5.97-41.87,9.86l-.37,178.21c.39,5.66,5.82,11.63,11.31,12.56l182.75-.37c5.04-1.56,8.73-6.07,9.21-11.37v-107.81c-.4-2.11-7.46-5.12-9.81-6.65-7.79-5.06-14.12-10.21-20.64-16.8ZM705.72,607.68c5.06,4.28,16.14-1.73,17.82,7.29l.24,143.77c.94,3.31,3.49,6.29,6.99,6.99,7.69,1.56,22.74,1.37,23.26-9.28l-.2-175.9c-1.49-3.77-4.57-5.13-8.43-5.56-7.34-.82-25.59-.82-32.92,0-4.48.5-8.09,2.14-8.66,6.98-.53,4.54-.58,16.96-.02,21.45.16,1.28.98,3.45,1.92,4.25ZM118.53,622.12c-5.78,1.1-10.42,4.97-11.24,10.98-2.61,19.15,1.81,43.59-.09,63.31.95,5.78,5.3,9.75,11.09,10.31,20.27,1.95,43.64-1.56,64.25-.02,5.3-.99,9.8-4.82,10.31-10.27,1.88-20.36-1.5-43.57-.02-64.25-1.27-6.99-7.04-9.65-13.61-10.25-19.25-1.75-41.16,1.11-60.68.18ZM590.05,634.46c-4.2.67-6.63,4.41-7.21,8.43l.19,66.5c3.11,11.09,23.43,1.06,27.72,8.49,2.74,4.75-.06,32.98.89,41.07.4,3.34,2.74,6.38,6.24,6.93,4.19.66,17.78.79,20.5-2.45,4.49-5.35-3.44-27.13,6.16-30.05,13.73-1.88,29.81,1.24,43.26-.35,3.34-.4,6.38-2.74,6.93-6.24.49-3.1.48-18.38-.32-20.98-.86-2.8-4.57-5.39-7.43-5.73-12.19-1.45-27.13,1.2-39.56.06-2.58-.24-4.54-.65-6.15-2.9-2.26-3.17-2.09-17.09-1.67-21.45.29-3.03,1.33-6.84,4.74-7.6,13.85-1.45,29.86,1.34,43.44-.17,4.73-.53,8.63-2.82,9.41-7.87.58-3.77.47-16.32-.85-19.62-.94-2.35-3.37-4.96-5.81-5.71l-100.48-.35ZM502,668.19c-3.86,1.05-5.91,3.62-6.38,7.61l.07,83.08c.66,3.38,2.83,6.16,6.31,6.86,3.02.61,13.94.63,17.04.14s5.71-3.23,6.17-6.17l.41-54.72c2.62-8.61,20.55-.46,26.74-6.17,3.34-3.08,3.17-18.35,2.46-22.94-.71-4.59-4.27-7.2-8.66-7.8-13.34-1.81-30.44,1.04-44.18.12ZM281.5,670.7c-4.59.61-7.61,2.03-8.83,6.81l.32,44.02c1.11,2.36,3.18,4.43,5.85,4.85,3.04.48,17.55.48,20.16-.32,2.18-.67,4.54-3.55,4.85-5.85l-.32-44.84c-1.93-6.16-16.8-5.36-22.03-4.66ZM409.23,726.43v-26.74c0-3.89-7.99-5.94-11.08-6.2-11.72-1-37.12-1.25-48.58.03-2.51.28-8.64,2.43-8.64,5.35v25.92h-31.68c-1.9,0-4.19,4.4-4.47,6.22-.73,4.8-.73,23.08,0,27.87s4.1,6.66,8.55,7.09c11.76,1.13,36.84,1.1,48.63-.01,6.66-.63,8.6-3.17,9.33-9.6.68-5.99.08-13.46.14-19.68.02-2.16-1.47-10.25,2.84-10.25h34.97ZM441.1,724.97c-2.74.55-5.04,2.38-5.49,5.21-.88,5.56-.64,22.02-.09,27.97.35,3.78,2.2,7.09,6.26,7.73,3.59.57,19.08.49,21.72-1.23,1.85-1.21,3.1-4.39,3.35-6.52.47-3.93.46-25.46-.64-28.2-.68-1.69-3.91-4.57-5.72-4.98-2.86-.64-16.42-.58-19.39.02ZM553,734.01c-1.89.42-4.31,2.43-4.68,4.37-.65,3.45-.48,17.59-.04,21.39.27,2.35,1.24,4.56,3.52,5.53,2.43,1.04,16.7,1.02,19.97.64,2.56-.3,5.36-1.89,6.35-4.35,1.22-3.02,1.19-22.8-.66-25.25-1.03-1.36-3.99-2.33-5.69-2.53-3.39-.4-15.73-.49-18.77.19Z"/>
      <path d="M587.81,576.66c-9.73,45.03-57.48,69.86-101.42,63.54-47.23,45.22-122.27,46.47-169.08-.02-24.52,2.73-49.03-1.25-69.62-15.13-16.08-10.85-30.89-29.61-33.49-49.22-14.44,16.59-34.99,25.5-57.22,23.9-84.02-6.08-60.05-136.05-45.41-189.48,12.17-44.39,44.27-123.58,83.77-149.11,4.16-2.69,15.72-7.41,18.06-9.92,2.18-2.35,5.58-10.73,7.87-14.35,73.7-116.61,278.85-120.92,355.69-6.91,3.38,5.02,8.84,17.42,11.65,20.44,2.57,2.77,14.74,7.51,19.2,10.42,37.97,24.82,70.79,104.07,82.63,146.97,11.6,42.05,22.8,113.95,6.39,154.87-16.52,41.19-71.28,48.44-102.87,19.78-1.09-.99-5.28-6.7-6.15-5.78ZM606.44,288.1c-9.24-8.12-34.08-3.83-45.85-5.58-7.75-32.24-27.95-60.53-55.97-78.16-48.55-30.56-124-33.89-177.28-14.49-41.29,15.04-76.21,49.02-85.24,92.92l-34.8,1c-20.72,1.66-21.5,33.42-16.92,48.01,2.06,6.57,5.37,9.54,11.37,12.5,1.06,30.85,7.63,63.73,34.52,82.34-.79,19.42,4.3,38.46,12.49,55.88-5.79,18.51-13.22,37.01-14.79,56.71-7.29,91.22,100.48,99.66,143.52,35.72,2.15-3.2,7.59-12.17,8.31-15.55,1.91-8.88-.48-21.45.29-30.75l-1.23-1.24c-38.61-.14-60.4-34.54-49.08-70.71,3.28-10.47,10.38-19.46,20.59-23.85,19.54-8.4,67.91-8.22,87.89-1.05,25.85,9.28,31.65,45.73,20.28,68.08-9.35,18.37-28.7,27.14-48.61,28.32.76,11.18-2.32,24.69,2.23,35.04,20.92,47.58,100.3,75.54,136.74,30.28,24.89-30.92,11.73-76.92-1.45-110.12,8.82-17.81,13.62-37.61,13.12-57.6,27.37-18.32,32.38-51.75,34.37-82.34,6.08-1.65,9.36-5.27,11.16-11.2,2.34-7.69,2.23-30.94-1.34-38.17-.7-1.42-3.21-5.03-4.3-5.99ZM454.49,630.98c-20.48-8.33-40.56-21.84-53.08-40.34-12.75,18.5-32.49,31.91-53.08,40.34,29.75,24.72,76.42,24.82,106.15,0Z"/>
      <path d="M203.37,245.71l-139.38.16c-7.68-.3-15-5.38-15.23-13.57l.42-179.04c2.48-6.28,6.83-10.63,13.98-10.7h176.17c5.6.5,10.29,2.86,12.17,8.4l.39,133.41c-19.45,17.59-37.1,37.47-48.51,61.34ZM92.19,73.23c-7.98,1.77-12.16,7.97-12.94,15.86-3.4,34.22,2.55,73.85-.04,108.65,1.06,10.32,6.46,16.1,16.86,16.88,35.32,2.63,73.85-2.06,109.51,0,9.53-.83,15.22-6.52,16.05-16.05,3.05-35.19-2.37-74.69,0-110.33-.52-8.01-6.5-14.2-14.43-15.19l-115.02.2Z"/>
      <path d="M552.6,186.42l.46-137.03c1.19-3.24,3.83-5.02,6.91-6.25l180.52-.59c6.2.41,11.17,4.02,13.16,9.88l.43,180.7c-.92,9.33-7.62,12.08-16.06,12.74l-138.15-.16c-.97-.34-7.32-12.83-8.75-15.11-10.44-16.57-23.5-31.74-38.52-44.18ZM594.17,73.23c-9.49,2.48-12.23,8.3-12.94,17.51-2.66,34.19,1.99,71.64-.04,106.18.22,9.38,6.49,16.84,16.04,17.7,35.65-2.37,75.15,3.04,110.33,0,9.53-.83,15.22-6.52,16.05-16.05,3.05-35.19-2.37-74.69,0-110.33-.52-8.01-6.5-14.2-14.43-15.19l-115.02.2Z"/>
      <path d="M221.6,622.74c6.53,6.59,12.86,11.74,20.64,16.8,2.35,1.53,9.41,4.54,9.81,6.65v107.81c-.48,5.3-4.17,9.81-9.21,11.37l-182.75.37c-5.49-.92-10.92-6.9-11.31-12.56l.37-178.21c3.33-15.83,30.38-7.94,41.87-9.86l6.79,13.13,11.87,16.52h-17.69c-.36,0-4.91,2.13-5.63,2.6-4.39,2.85-6.57,7.52-7.12,12.63,2.23,34.83-3,73.44-.04,107.82.86,9.97,5.87,15.99,16.05,16.87,35.69,3.09,75.79-2.38,111.95-.03,5.32.17,14.4-7.73,14.4-12.76v-99.16Z"/>
      <path d="M590.05,634.46l100.48.35c2.44.74,4.87,3.36,5.81,5.71,1.32,3.3,1.43,15.84.85,19.62-.78,5.05-4.67,7.35-9.41,7.87-13.58,1.51-29.59-1.28-43.44.17-3.41.76-4.45,4.57-4.74,7.6-.42,4.37-.59,18.29,1.67,21.45,1.61,2.25,3.57,2.67,6.15,2.9,12.42,1.14,27.37-1.5,39.56-.06,2.86.34,6.57,2.94,7.43,5.73.8,2.61.81,17.89.32,20.98-.55,3.49-3.59,5.84-6.93,6.24-13.46,1.59-29.53-1.53-43.26.35-9.6,2.92-1.67,24.7-6.16,30.05-2.72,3.24-16.31,3.11-20.5,2.45-3.49-.55-5.84-3.59-6.24-6.93-.96-8.09,1.84-36.33-.89-41.07-4.28-7.43-24.61,2.6-27.72-8.49l-.19-66.5c.58-4.01,3.01-7.75,7.21-8.43Z"/>
      <path d="M359.03,73.85v-22.63c0-4.46,6.24-8.18,10.29-8.64,25.95-2.97,57.4,2.22,83.94,0,4.42.27,8.13,3.35,8.66,7.8s.82,19.33-2.52,22.21c-4.98,4.3-25.73.97-33.25,2.14-4.35.68-5.07,3.9-5.43,7.74-1.37,14.74,1.77,32.5.05,46.96-1.17,9.83-15.97,8.47-23.5,7.83-20.81-1.76-1.2-24.27-16.82-30.91-15.84-1.82-33.38,1.09-49.03-.35-4.29-.4-7.61-2.84-8.41-7.23-.64-3.51-.64-13.46-.21-17.1.36-3.05,4.03-7.8,7.01-7.8h29.21Z"/>
      <path d="M118.53,622.12c19.52.93,41.44-1.94,60.68-.18,6.57.6,12.35,3.26,13.61,10.25-1.48,20.68,1.9,43.88.02,64.25-.5,5.45-5,9.28-10.31,10.27-20.61-1.54-43.98,1.98-64.25.02-5.79-.56-10.13-4.53-11.09-10.31,1.9-19.72-2.52-44.16.09-63.31.82-6.02,5.45-9.88,11.24-10.98Z"/>
      <path d="M705.72,607.68c-.94-.8-1.76-2.96-1.92-4.25-.56-4.49-.51-16.91.02-21.45.57-4.84,4.18-6.48,8.66-6.98,7.33-.82,25.58-.82,32.92,0,3.87.43,6.94,1.78,8.43,5.56l.2,175.9c-.53,10.65-15.57,10.83-23.26,9.28-3.5-.71-6.05-3.69-6.99-6.99l-.24-143.77c-1.68-9.01-12.76-3.01-17.82-7.29Z"/>
      <path d="M409.23,726.43h-34.97c-4.32,0-2.82,8.09-2.84,10.25-.06,6.22.54,13.68-.14,19.68-.73,6.43-2.67,8.97-9.33,9.6-11.79,1.11-36.86,1.14-48.63.01-4.45-.43-7.81-2.3-8.55-7.09s-.73-23.08,0-27.87c.28-1.83,2.57-6.22,4.47-6.22h31.68v-25.92c0-2.92,6.13-5.07,8.64-5.35,11.47-1.28,36.87-1.03,48.58-.03,3.09.26,11.08,2.31,11.08,6.2v26.74Z"/>
      <path d="M735.1,296.86v42.38c0,2.18-4.01,4.29-6.15,4.54-4.55.53-16.06.53-20.61,0-3.81-.44-5.73-2.39-6.17-6.17-1.36-11.72,1.34-25.56-.35-37.51-2.7-8.3-24.54,3.11-25.99-9.4-.41-3.56-.5-18.96.39-21.87s4.49-4.79,7.45-4.89c19.85,1.4,42.21-1.87,61.75-.03,4.76.45,7.73,1.84,8.91,6.72s2.36,26.22-5.65,26.22h-13.58Z"/>
      <path d="M502,668.19c13.74.92,30.84-1.92,44.18-.12,4.39.6,7.95,3.21,8.66,7.8.71,4.59.88,19.86-2.46,22.94-6.19,5.71-24.12-2.43-26.74,6.17l-.41,54.72c-.46,2.94-3.21,5.7-6.17,6.17-3.1.49-14.03.46-17.04-.14-3.48-.7-5.65-3.48-6.31-6.86l-.07-83.08c.48-3.98,2.52-6.56,6.38-7.61Z"/>
      <path d="M54.31,285.52l65.46.03c2.86,1.19,5.02,3.72,5.5,6.84s.49,16.72-.31,19.33c-.74,2.42-4.72,5.82-7.43,5.73l-62.99-.41c-4.06-1.32-5.39-4.13-5.78-8.21-.34-3.57-.49-14.82.22-17.97.49-2.18,3.16-4.86,5.35-5.35Z"/>
      <path d="M721.41,381.09c1.09-1.09,2.65-1.78,4.2-1.97,4.41-.54,17.94-.59,22.29,0,3.93.52,5.83,4.19,6.17,7.82.89,9.58,1.24,35.37,0,44.51-.29,2.13-1.95,4.95-3.91,5.96-2.74,1.42-20,1.5-23.64.94-4.49-.69-6.69-3.4-7.09-7.73-1.31-14.39,1.08-30.72,0-45.33.12-1.51.93-3.16,1.97-4.2Z"/>
      <path d="M497.57,101.54c-1.05-1.05-1.85-2.69-1.97-4.2l.4-49.86c1.98-6.46,15.07-5.45,20.65-4.93s7.96,2.12,8.61,7.85c1.67,14.8-.94,33.05-.37,48.19-1,1.83-2.88,4.47-5,4.87-2.89.55-14.94.44-18.12.05-1.55-.19-3.11-.88-4.2-1.97Z"/>
      <path d="M281.5,670.7c5.22-.7,20.1-1.5,22.03,4.66l.32,44.84c-.31,2.3-2.67,5.18-4.85,5.85-2.61.8-17.12.8-20.16.32-2.67-.42-4.74-2.49-5.85-4.85l-.32-44.02c1.22-4.77,4.24-6.19,8.83-6.81Z"/>
      <path d="M441.1,724.97c2.97-.6,16.53-.66,19.39-.02,1.81.41,5.04,3.29,5.72,4.98,1.11,2.74,1.11,24.27.64,28.2-.26,2.13-1.51,5.31-3.35,6.52-2.63,1.72-18.12,1.8-21.72,1.23-4.06-.64-5.91-3.95-6.26-7.73-.55-5.95-.79-22.4.09-27.97.45-2.83,2.75-4.66,5.49-5.21Z"/>
      <path d="M53.49,512.65c3.35-.75,17.46-.63,21.23-.19,4.07.48,5.71,3.09,6.18,6.99.43,3.61.44,20.57-.64,23.26-2.32,5.79-18.18,4.95-23.65,4.33-4.34-.49-7.3-2.38-7.84-6.98-.51-4.33-.57-17.18.07-21.36.38-2.49,2.05-5.47,4.65-6.05Z"/>
      <path d="M54.31,412.25c3.03-.68,17.9-.65,21.18-.13,3.47.55,5.84,3.57,6.24,6.93s.48,19.09-.39,21.87c-2,6.41-17.5,5.45-23.07,4.88-4.84-.49-8.87-2.51-9.49-7.79-.51-4.33-.57-19.96,1.65-23.08.81-1.13,2.53-2.39,3.89-2.69Z"/>
      <path d="M72.09,348.97c2.93-2.59,16.51-2.35,20.77-1.94,5.69.55,8.09,2.95,8.64,8.64.42,4.4.73,19.83-2.07,22.7-3.11,3.19-19.24,3.12-23.85,2.39-4.06-.64-5.79-4.01-6.22-7.77-.46-4.09-.51-14.09-.02-18.13.21-1.72,1.53-4.82,2.75-5.89Z"/>
      <path d="M723.81,521.75c.91-.91,3.73-1.75,5.1-1.9,4.02-.45,15.09-.54,18.98-.01,3.55.48,5.74,2.71,6.15,6.19s.49,19.89-.38,22.69c-.48,1.53-2.18,3.23-3.7,3.7-2.57.81-18.68.84-21.89.41-2.21-.29-4.7-2.38-5.51-4.37-1.08-2.68-1.04-18.04-.64-21.62.15-1.37.99-4.19,1.9-5.1Z"/>
      <path d="M553,734.01c3.04-.68,15.38-.6,18.77-.19,1.71.2,4.67,1.17,5.69,2.53,1.85,2.46,1.87,22.23.66,25.25-.99,2.45-3.8,4.05-6.35,4.35-3.27.38-17.54.4-19.97-.64-2.28-.97-3.24-3.19-3.52-5.53-.44-3.81-.61-17.95.04-21.39.37-1.95,2.79-3.95,4.68-4.37Z"/>
      <path d="M297.07,43.58c4.27-.96,19.81-.92,22.82,2.34s2.58,16.48,2.15,20.98c-.51,5.27-2.41,7.98-7.86,8.6-4.86.55-18.18,1.1-21-2.86-2.25-3.15-2.15-17.94-1.56-22.16.42-3,2.24-6.18,5.45-6.9Z"/>
      <path d="M468.29,105.34c4.57-.71,18.16-.5,21.14,3.11s2.95,20.44.87,24.66c-2.7,5.49-16.68,4.78-22.25,4.12-3.91-.46-6.53-3.08-6.99-6.99-.42-3.52-.51-16.45.19-19.6.78-3.47,3.86-4.81,7.04-5.3Z"/>
      <path d="M319.28,135.32c-2.9,2.56-19.13,2.67-22.58,1.28-.77-.31-3.16-2.36-3.55-3.04-1.19-2.08-1.18-18.17-.8-21.46.96-8.29,13.05-7.57,19.39-7.01,5.82.52,9.55,2.47,10.25,8.67.54,4.81.91,18.34-2.72,21.55Z"/>
      <path class="st0" d="M606.44,288.1c1.09.96,3.6,4.57,4.3,5.99,3.57,7.23,3.68,30.47,1.34,38.17-1.8,5.92-5.09,9.55-11.16,11.2-1.99,30.58-7.01,64.02-34.37,82.34.49,19.99-4.3,39.8-13.12,57.6,13.18,33.2,26.34,79.2,1.45,110.12-36.44,45.26-115.81,17.3-136.74-30.28-4.55-10.35-1.46-23.86-2.23-35.04,19.91-1.19,39.27-9.95,48.61-28.32,11.37-22.35,5.57-58.79-20.28-68.08-19.98-7.17-68.35-7.35-87.89,1.05-10.21,4.39-17.31,13.37-20.59,23.85-11.32,36.17,10.47,70.57,49.08,70.71l1.23,1.24c-.77,9.3,1.62,21.87-.29,30.75-.73,3.38-6.16,12.36-8.31,15.55-43.04,63.95-150.81,55.51-143.52-35.72,1.58-19.7,9.01-38.2,14.79-56.71-8.19-17.42-13.28-36.46-12.49-55.88-26.89-18.61-33.46-51.49-34.52-82.34-6-2.96-9.31-5.93-11.37-12.5-4.58-14.59-3.8-46.35,16.92-48.01l34.8-1c9.03-43.9,43.95-77.88,85.24-92.92,53.28-19.41,128.73-16.07,177.28,14.49,28.02,17.63,48.22,45.92,55.97,78.16,11.78,1.75,36.62-2.54,45.85,5.58ZM600.74,332.85c4.11-4.19,4.13-27.94,2.33-33.56-2.76-8.62-18.73-6.99-25.55-7.37-32.57-1.82-65.36-1.67-97.94,0-23.32,1.2-27.6,2.95-48.74,10.51-43.94,15.72-57.27-6.9-95.27-10.5-33.32-3.15-75.82-1.9-109.45-.02-7.02.39-22.57-1.04-26.28,6.64-2.51,5.19-1.56,25.71.58,31.43,2.56,6.82,8.82,3.4,10.3,6.98,3.91,41.04,8.7,80.04,55.99,88.85,38.91,7.25,79.21,3.09,100.69-33.75,8.94-15.33,11.1-29.67,17.11-45.44,2.25-5.91,5.02-10.45,11.93-11.12,11.24-1.08,17.3-.59,21.87,10.31,10.62,25.34,10.47,46.61,34.16,66.24,22.48,18.63,67.29,19.43,94,10.94,38.04-12.09,42.25-52.1,45.18-86.43,1.04-2.43,6.9-1.46,9.1-3.71ZM345.63,538.16c-1.79.39-3.5,1.67-3.86,3.54-.46,2.39-.3,16.67.75,18.15,2.11,2.98,17.93,2.72,20.59.72,2.42-1.82,2.38-18.54.93-20.59-1.92-2.71-15.15-2.54-18.4-1.82ZM438.29,539.88c-1.91,2.64-1.92,17.78.96,20.34s18,2.59,20.25-.36c1.24-1.62,1.24-18.12-.01-19.89-2.13-3.01-19.12-2.98-21.2-.1Z"/>
      <path class="st0" d="M454.49,630.98c-29.73,24.82-76.41,24.72-106.15,0,20.58-8.44,40.33-21.84,53.08-40.34,12.52,18.51,32.6,32.01,53.08,40.34Z"/>
      <path class="st0" d="M92.19,73.23l115.02-.2c7.94,1,13.91,7.19,14.43,15.19-2.37,35.65,3.04,75.15,0,110.33-.83,9.53-6.52,15.22-16.05,16.05-35.66-2.06-74.19,2.64-109.51,0-10.4-.77-15.81-6.56-16.86-16.88,2.59-34.79-3.37-74.42.04-108.65.78-7.89,4.96-14.09,12.94-15.86ZM115.23,102.03c-4.24.77-7.52,4.99-8.03,9.25,1.42,20.73-1.83,43.8-.01,64.24.58,6.51,3.55,10.47,10.28,11.12,20.53,1.99,44.21-1.6,65.08,0,4.8.15,9.71-3.91,10.27-8.65-1.54-21.74,1.99-46.12.02-67.54-.48-5.27-3.57-7.66-8.66-8.62l-68.95.21Z"/>
      <path class="st0" d="M594.17,73.23l115.02-.2c7.94,1,13.91,7.19,14.43,15.19-2.37,35.65,3.04,75.15,0,110.33-.83,9.53-6.52,15.22-16.05,16.05-35.19,3.05-74.69-2.37-110.33,0-9.55-.85-15.82-8.31-16.04-17.7,2.03-34.54-2.62-71.98.04-106.18.72-9.21,3.45-15.03,12.94-17.51ZM617.21,102.03c-4.83.88-7.53,5.43-8.01,10.09,1.61,20.44-2.15,44.15,0,64.19.66,6.13,4.11,9.73,10.25,10.33,21.03,2.04,45.33-1.62,66.72-.02,6.29-1,8.94-5.07,9.48-11.09,1.39-15.71,1.34-46.03,0-61.78-.45-5.29-1.93-8.84-6.84-11.26l-71.58-.45Z"/>
      <path d="M600.74,332.85c-2.2,2.24-8.06,1.28-9.1,3.71-2.93,34.33-7.14,74.34-45.18,86.43-26.71,8.49-71.53,7.69-94-10.94-23.68-19.63-23.54-40.9-34.16-66.24-4.57-10.9-10.63-11.39-21.87-10.31-6.91.66-9.67,5.21-11.93,11.12-6.01,15.76-8.17,30.1-17.11,45.44-21.48,36.84-61.78,41-100.69,33.75-47.28-8.81-52.08-47.81-55.99-88.85-1.48-3.58-7.74-.16-10.3-6.98-2.15-5.72-3.09-26.23-.58-31.43,3.71-7.67,19.26-6.24,26.28-6.64,33.63-1.88,76.13-3.13,109.45.02,38,3.6,51.33,26.22,95.27,10.5,21.14-7.57,25.42-9.32,48.74-10.51,32.59-1.67,65.37-1.82,97.94,0,6.82.38,22.79-1.25,25.55,7.37,1.8,5.62,1.78,29.37-2.33,33.56Z"/>
      <path d="M345.63,538.16c3.25-.72,16.48-.89,18.4,1.82,1.46,2.05,1.49,18.77-.93,20.59-2.66,2-18.48,2.26-20.59-.72-1.05-1.48-1.2-15.76-.75-18.15.36-1.88,2.07-3.15,3.86-3.54Z"/>
      <path d="M438.29,539.88c2.08-2.88,19.07-2.91,21.2.1,1.25,1.76,1.25,18.27.01,19.89-2.25,2.95-17.5,2.81-20.25.36s-2.87-17.7-.96-20.34Z"/>
      <path d="M115.23,102.03l68.95-.21c5.09.96,8.18,3.35,8.66,8.62,1.97,21.41-1.56,45.8-.02,67.54-.56,4.74-5.48,8.8-10.27,8.65-20.87-1.59-44.56,2-65.08,0-6.73-.65-9.7-4.61-10.28-11.12-1.81-20.44,1.44-43.51.01-64.24.51-4.26,3.79-8.48,8.03-9.25Z"/>
      <path d="M617.21,102.03l71.58.45c4.92,2.42,6.39,5.97,6.84,11.26,1.34,15.75,1.4,46.07,0,61.78-.53,6.02-3.19,10.09-9.48,11.09-21.39-1.6-45.68,2.06-66.72.02-6.14-.6-9.59-4.2-10.25-10.33-2.15-20.04,1.61-43.75,0-64.19.49-4.66,3.18-9.21,8.01-10.09Z"/>
    </g>
  </g>
</svg>