<?xml version="1.0" encoding="UTF-8"?><svg id="Layer_1" xmlns="http://www.w3.org/2000/svg" viewBox="0 0 731.22 655.35"><defs><style>.cls-1{fill:#fff;}</style></defs><g id="_1BjVI0"><path class="cls-1" d="M731.22,0v655.35H0V0h731.22ZM575.3,516.28c51.68,52.13,130.35,4.52,140.21-58.9,18.36-117.95-54.37-267.08-145.9-338.99-18.19-14.29-27.27-23.72-43.81-38.37-73.81-65.37-229.43-64.71-303.55,0-8.35,7.29-16.04,19.24-23.09,25.38-13.03,11.35-34.22,20.62-49.59,34.7C74.82,208.63,20.53,346.66,29.53,447.76c6.2,69.7,89.52,127.66,141.13,62.2,10.09,34.03,41.78,63.83,77.48,68.99,7.76,1.12,18-.91,24.31.97,3.85,1.15,16.44,16.15,21.87,20.28,49.88,37.92,140.46,30.84,179.19-20.75,44.44,5.19,87.39-20.87,101.79-63.17Z"/><path d="M575.3,516.28c-14.41,42.31-57.35,68.37-101.79,63.17-38.73,51.59-129.31,58.67-179.19,20.75-5.43-4.13-18.02-19.13-21.87-20.28-6.31-1.88-16.56.15-24.31-.97-35.7-5.17-67.39-34.96-77.48-68.99-51.61,65.46-134.92,7.49-141.13-62.2-9-101.1,45.28-239.13,120.05-307.65,15.37-14.08,36.56-23.35,49.59-34.7,7.05-6.14,14.74-18.09,23.09-25.38,74.12-64.71,229.75-65.37,303.55,0,16.54,14.65,25.62,24.09,43.81,38.37,91.53,71.9,164.25,221.04,145.9,338.99-9.87,63.42-88.53,111.03-140.21,58.9ZM545.98,172.58c-25.36-101.86-149.88-122.66-238.31-99.87-49.37,12.73-95.21,48.11-105.47,99.99-19.85.15-52.55-4.33-56.67,22.35-1.19,7.7-.98,29.1,1.26,36.39,2.82,9.15,11.78,10.57,13.02,14.38,1.96,6.01,1.83,22.94,3.83,32,5.05,22.86,16.9,45.53,36.59,58.7-5.07,20.83,12.66,52.01,12.66,69.12,0,10-9.88,31.13-12.12,42.73-22.2,114.75,95.81,131.08,147.78,48.74,7.62-12.07,12.22-22.97,8.76-37.88-22.54-2.66-43.63-10.6-54.25-32.14-8.84-17.93-10.16-52.22,5.97-66.43,21.47-18.92,84.7-18.91,110.26-9.76,61.47,21.99,29.91,113.36-29.45,106.37-2.43,21.92.9,31.93,12.99,49.16,47,67.04,154.01,56.79,144.77-43.62-1.45-15.76-14.47-47.43-14.27-57.21.14-6.88,10.79-29.94,12.18-42.36.99-8.84-.21-17.85.22-26.7,19.57-13.48,32.04-35.23,36.99-58.31,2.06-9.61,1.43-25.61,3.47-32.35,1.62-5.37,12.64-6.47,14.42-21.41,5.44-45.72-11.61-54.12-54.63-51.89ZM377.16,520.5h-3.1c-8.28,12.67-21.45,20.76-32.91,30.31l-29.26,18.11c38.32,21.21,81.22,23.13,120.09,2.11.82-3.74-1.09-4.17-3.48-5.97-7.32-5.53-17.77-9.32-26.04-16.1-8.51-6.97-20.15-19.06-25.3-28.46Z"/><path class="cls-1" d="M545.98,172.58c43.02-2.23,60.07,6.16,54.63,51.89-1.78,14.93-12.8,16.04-14.42,21.41-2.04,6.75-1.41,22.74-3.47,32.35-4.94,23.08-17.42,44.83-36.99,58.31-.43,8.85.77,17.87-.22,26.7-1.39,12.42-12.04,35.48-12.18,42.36-.2,9.78,12.82,41.44,14.27,57.21,9.24,100.42-97.77,110.66-144.77,43.62-12.08-17.24-15.42-27.24-12.99-49.16,59.35,6.99,90.91-84.38,29.45-106.37-25.56-9.15-88.8-9.16-110.26,9.76-16.13,14.21-14.8,48.51-5.97,66.43,10.62,21.54,31.71,29.48,54.25,32.14,3.46,14.91-1.14,25.81-8.76,37.88-51.98,82.34-169.99,66-147.78-48.74,2.24-11.6,12.12-32.72,12.12-42.73,0-17.11-17.73-48.29-12.66-69.12-19.69-13.17-31.55-35.84-36.59-58.7-2-9.06-1.86-25.98-3.83-32-1.24-3.8-10.2-5.22-13.02-14.38-2.25-7.3-2.46-28.69-1.26-36.39,4.12-26.68,36.83-22.2,56.67-22.35,10.25-51.88,56.09-87.26,105.47-99.99,88.43-22.8,212.94-1.99,238.31,99.87ZM585.34,229.22c3.99-3.82,3.09-25.34,1.67-31.27-1.88-7.84-4.96-9.52-12.75-10.43-32.02-3.75-99.51-2.31-132.77.06-35.56,2.53-55.71,17.67-94.27,9.93-7.39-1.48-14.81-5.38-22.6-6.9-30.71-5.99-121.07-6.79-152.92-3.09-10.68,1.24-12.57,5.65-13.65,15.84-1.24,11.66-2.64,29.46,12.69,29.44,6.22,33.66,5.96,77.23,42.01,94.96,48.3,23.76,109.57,10.37,131.11-41.84,7.85-19.02,9.09-61.23,39.13-48.3,10.61,4.57,17.61,46.39,24.32,59.95,16.65,33.65,51.23,42.07,86.81,39.56,44.8-3.16,67.25-23.83,76-67.29,1.83-9.09,1.69-29.24,4.45-35.48,2.01-4.56,8-2.48,10.77-5.14ZM324.22,488.57l-.62-23-20.16-1.98.25,25.07c7.12,1.87,13.66,3.8,20.54-.08ZM442.22,490.69l1.49-25.13-20.29-1.05-1.05,24.5,19.85,1.68Z"/><path class="cls-1" d="M377.16,520.5c5.15,9.4,16.79,21.49,25.3,28.46,8.28,6.78,18.73,10.57,26.04,16.1,2.39,1.8,4.3,2.23,3.48,5.97-38.88,21.02-81.77,19.11-120.09-2.11l29.26-18.11c11.47-9.55,24.64-17.64,32.91-30.31h3.1Z"/><path d="M585.34,229.22c-2.78,2.65-8.76.58-10.77,5.14-2.76,6.25-2.62,26.4-4.45,35.48-8.75,43.46-31.2,64.13-76,67.29-35.57,2.51-70.15-5.92-86.81-39.56-6.71-13.56-13.71-55.39-24.32-59.95-30.04-12.93-31.28,29.28-39.13,48.3-21.54,52.21-82.8,65.6-131.11,41.84-36.05-17.73-35.79-61.31-42.01-94.96-15.34.02-13.93-17.78-12.69-29.44,1.08-10.2,2.98-14.6,13.65-15.84,31.85-3.7,122.21-2.9,152.92,3.09,7.79,1.52,15.21,5.42,22.6,6.9,38.55,7.74,58.71-7.41,94.27-9.93,33.26-2.36,100.74-3.81,132.77-.06,7.79.91,10.87,2.59,12.75,10.43,1.43,5.94,2.33,27.46-1.67,31.27Z"/><polygon points="442.22 490.69 422.37 489.02 423.42 464.51 443.71 465.57 442.22 490.69"/><path d="M324.22,488.57c-6.87,3.88-13.42,1.95-20.54.08l-.25-25.07,20.16,1.98.62,23Z"/></g></svg>